<?xml version="1.0" encoding="UTF-8" standalone="no"?>
<!DOCTYPE svg PUBLIC "-//W3C//DTD SVG 1.1//EN"
 "http://www.w3.org/Graphics/SVG/1.1/DTD/svg11.dtd">
<!-- Generated by graphviz version 2.40.1 (20161225.0304)
 -->
<!-- Title: graphname Pages: 1 -->
<svg width="261pt" height="488pt"
 viewBox="0.00 0.00 260.80 488.00" xmlns="http://www.w3.org/2000/svg" xmlns:xlink="http://www.w3.org/1999/xlink">
<g id="graph0" class="graph" transform="scale(1 1) rotate(0) translate(4 484)">
<title>graphname</title>
<polygon fill="#ffffff" stroke="transparent" points="-4,4 -4,-484 256.7975,-484 256.7975,4 -4,4"/>
<!-- A -->
<g id="node1" class="node">
<title>A</title>
<ellipse fill="none" stroke="#000000" cx="218.7975" cy="-462" rx="27" ry="18"/>
<text text-anchor="middle" x="218.7975" y="-457.8" font-family="Times,serif" font-size="14.00" fill="#000000">A</text>
</g>
<!-- B -->
<g id="node2" class="node">
<title>B</title>
<ellipse fill="none" stroke="#000000" cx="190.7975" cy="-373.2" rx="27" ry="18"/>
<text text-anchor="middle" x="190.7975" y="-369" font-family="Times,serif" font-size="14.00" fill="#000000">B</text>
</g>
<!-- A&#45;&#45;B -->
<g id="edge1" class="edge">
<title>A&#45;&#45;B</title>
<path fill="none" stroke="#000000" d="M213.1312,-444.03C208.2414,-428.5222 201.219,-406.2511 196.3597,-390.8402"/>
<text text-anchor="middle" x="210.2975" y="-413.4" font-family="Times,serif" font-size="14.00" fill="#000000">4</text>
</g>
<!-- G -->
<g id="node6" class="node">
<title>G</title>
<ellipse fill="none" stroke="#000000" cx="118.7975" cy="-18" rx="27" ry="18"/>
<text text-anchor="middle" x="118.7975" y="-13.8" font-family="Times,serif" font-size="14.00" fill="#000000">G</text>
</g>
<!-- A&#45;&#45;G -->
<g id="edge11" class="edge">
<title>A&#45;&#45;G</title>
<path fill="none" stroke="#000000" d="M227.3404,-444.7798C235.2506,-427.2238 245.7975,-398.9817 245.7975,-373.2 245.7975,-373.2 245.7975,-373.2 245.7975,-106.8 245.7975,-57.8351 181.6076,-33.6098 144.4978,-23.6959"/>
<text text-anchor="middle" x="249.2975" y="-235.8" font-family="Times,serif" font-size="14.00" fill="#000000">3</text>
</g>
<!-- C -->
<g id="node3" class="node">
<title>C</title>
<ellipse fill="none" stroke="#000000" cx="71.7975" cy="-284.4" rx="27" ry="18"/>
<text text-anchor="middle" x="71.7975" y="-280.2" font-family="Times,serif" font-size="14.00" fill="#000000">C</text>
</g>
<!-- B&#45;&#45;C -->
<g id="edge2" class="edge">
<title>B&#45;&#45;C</title>
<path fill="none" stroke="#000000" d="M172.7239,-359.7132C150.3573,-343.0228 112.486,-314.7625 90.0411,-298.0137"/>
<text text-anchor="middle" x="146.2975" y="-324.6" font-family="Times,serif" font-size="14.00" fill="#000000">2</text>
</g>
<!-- H -->
<g id="node8" class="node">
<title>H</title>
<ellipse fill="none" stroke="#000000" cx="190.7975" cy="-106.8" rx="27" ry="18"/>
<text text-anchor="middle" x="190.7975" y="-102.6" font-family="Times,serif" font-size="14.00" fill="#000000">H</text>
</g>
<!-- B&#45;&#45;H -->
<g id="edge10" class="edge">
<title>B&#45;&#45;H</title>
<path fill="none" stroke="#000000" d="M190.7975,-354.8892C190.7975,-306.1046 190.7975,-173.4132 190.7975,-124.8866"/>
<text text-anchor="middle" x="194.2975" y="-235.8" font-family="Times,serif" font-size="14.00" fill="#000000">4</text>
</g>
<!-- D -->
<g id="node4" class="node">
<title>D</title>
<ellipse fill="none" stroke="#000000" cx="107.7975" cy="-195.6" rx="27" ry="18"/>
<text text-anchor="middle" x="107.7975" y="-191.4" font-family="Times,serif" font-size="14.00" fill="#000000">D</text>
</g>
<!-- C&#45;&#45;D -->
<g id="edge3" class="edge">
<title>C&#45;&#45;D</title>
<path fill="none" stroke="#000000" d="M78.9099,-266.856C85.2212,-251.2881 94.393,-228.6644 100.6998,-213.1076"/>
<text text-anchor="middle" x="97.2975" y="-235.8" font-family="Times,serif" font-size="14.00" fill="#000000">7</text>
</g>
<!-- E -->
<g id="node5" class="node">
<title>E</title>
<ellipse fill="none" stroke="#000000" cx="46.7975" cy="-106.8" rx="27" ry="18"/>
<text text-anchor="middle" x="46.7975" y="-102.6" font-family="Times,serif" font-size="14.00" fill="#000000">E</text>
</g>
<!-- C&#45;&#45;E -->
<g id="edge4" class="edge">
<title>C&#45;&#45;E</title>
<path fill="none" stroke="#000000" d="M69.2627,-266.3934C64.4711,-232.3537 54.1357,-158.9307 49.3389,-124.8543"/>
<text text-anchor="middle" x="65.2975" y="-191.4" font-family="Times,serif" font-size="14.00" fill="#000000">8</text>
</g>
<!-- C&#45;&#45;G -->
<g id="edge5" class="edge">
<title>C&#45;&#45;G</title>
<path fill="none" stroke="#000000" d="M58.6681,-268.3714C32.1204,-233.8885 -22.6759,-150.7686 10.7975,-88.8 28.3787,-56.2522 68.162,-36.2488 94.224,-26.1403"/>
<text text-anchor="middle" x="7.2975" y="-147" font-family="Times,serif" font-size="14.00" fill="#000000">0</text>
</g>
<!-- D&#45;&#45;E -->
<g id="edge6" class="edge">
<title>D&#45;&#45;E</title>
<path fill="none" stroke="#000000" d="M96.3238,-178.8974C85.418,-163.0214 69.1084,-139.2789 58.2196,-123.4277"/>
<text text-anchor="middle" x="86.2975" y="-147" font-family="Times,serif" font-size="14.00" fill="#000000">5</text>
</g>
<!-- F -->
<g id="node7" class="node">
<title>F</title>
<ellipse fill="none" stroke="#000000" cx="118.7975" cy="-106.8" rx="27" ry="18"/>
<text text-anchor="middle" x="118.7975" y="-102.6" font-family="Times,serif" font-size="14.00" fill="#000000">F</text>
</g>
<!-- D&#45;&#45;F -->
<g id="edge7" class="edge">
<title>D&#45;&#45;F</title>
<path fill="none" stroke="#000000" d="M110.0235,-177.63C111.9319,-162.2236 114.6673,-140.142 116.5748,-124.7433"/>
<text text-anchor="middle" x="118.2975" y="-147" font-family="Times,serif" font-size="14.00" fill="#000000">6</text>
</g>
<!-- D&#45;&#45;H -->
<g id="edge8" class="edge">
<title>D&#45;&#45;H</title>
<path fill="none" stroke="#000000" d="M122.255,-180.1322C137.489,-163.8336 161.3343,-138.322 176.5056,-122.0905"/>
<text text-anchor="middle" x="160.2975" y="-147" font-family="Times,serif" font-size="14.00" fill="#000000">6</text>
</g>
<!-- F&#45;&#45;G -->
<g id="edge9" class="edge">
<title>F&#45;&#45;G</title>
<path fill="none" stroke="#000000" d="M118.7975,-88.4006C118.7975,-73.0587 118.7975,-51.322 118.7975,-36.072"/>
<text text-anchor="middle" x="122.2975" y="-58.2" font-family="Times,serif" font-size="14.00" fill="#000000">3</text>
</g>
</g>
</svg>
